<?xml version="1.0"?>
<svg xmlns="http://www.w3.org/2000/svg" xmlns:xlink="http://www.w3.org/1999/xlink" version="1.1" id="Capa_1" x="0px" y="0px" viewBox="0 0 512 512" style="enable-background:new 0 0 512 512;" xml:space="preserve" width="512px" height="512px" class=""><g transform="matrix(-1 0 0 1 512 0)"><g>
	<g>
		<path d="M181.333,405.333c-29.867,0-53.333,23.467-53.333,53.333S151.467,512,181.333,512c29.867,0,53.333-23.467,53.333-53.333    S211.2,405.333,181.333,405.333z M181.333,490.666c-17.067,0-32-14.934-32-32s14.933-32,32-32c17.067,0,32,14.934,32,32    S198.4,490.666,181.333,490.666z" data-original="#000000" class="active-path" data-old_color="#1779ba" fill="#1779ba"/>
	</g>
</g><g>
	<g>
		<path d="M509.867,110.933c-2.133-2.133-4.267-4.267-8.533-4.267h-61.867l12.8-12.8c10.667-10.667,17.067-23.467,17.067-38.4    c0-14.933-6.4-27.733-17.067-38.4c-21.333-21.333-57.6-21.333-76.8,0l-12.8,12.8v-19.2C362.667,4.267,358.4,0,352,0h-85.333    C260.267,0,256,4.267,256,10.667V70.4L189.867,4.267C185.6,0,179.2,0,174.933,4.267l-64,64c-4.267,4.267-4.267,10.667,0,14.934    l23.467,23.467H96L85.333,51.2c0-4.267-6.4-8.533-10.667-8.533h-64C4.267,42.667,0,46.934,0,53.334C0,59.733,4.267,64,10.667,64    h55.467l51.2,260.267c6.4,34.133,38.4,59.733,72.533,59.733H435.2c6.4,0,10.667-4.267,10.667-10.667    c0-6.4-4.267-10.667-10.667-10.667H192c-17.067,0-34.133-8.533-42.667-23.467L460.8,296.534c4.267,0,8.533-4.267,8.533-8.533    L512,117.334C512,117.333,512,113.066,509.867,110.933z M362.667,59.733L390.4,32c12.8-12.8,34.133-12.8,46.933,0    c6.4,6.4,10.667,14.934,10.667,23.467s-4.267,17.066-10.667,23.467L409.6,106.666h-46.933V59.733z M277.333,21.333h64v34.133v51.2    h-49.067l-14.933-14.934V21.333z M132.267,74.666L181.333,25.6l81.067,81.066h-98.133L132.267,74.666z M450.133,277.333    l-311.467,40.533l-38.4-192H486.4L450.133,277.333z" data-original="#000000" class="active-path" data-old_color="#1779ba" fill="#1779ba"/>
	</g>
</g><g>
	<g>
		<path d="M394.667,405.333c-29.867,0-53.333,23.467-53.333,53.333S364.8,512,394.667,512C424.533,512,448,488.533,448,458.666    S424.533,405.333,394.667,405.333z M394.667,490.666c-17.067,0-32-14.934-32-32s14.933-32,32-32c17.067,0,32,14.934,32,32    S411.733,490.666,394.667,490.666z" data-original="#000000" class="active-path" data-old_color="#1779ba" fill="#1779ba"/>
	</g>
</g></g> </svg>
